<mxfile host="app.diagrams.net" agent="Mozilla/5.0 (Macintosh; Intel Mac OS X 10_15_7) AppleWebKit/537.36 (KHTML, like Gecko) Chrome/127.0.0.0 Safari/537.36" version="24.7.7">
  <diagram name="第 1 页" id="EUCrMSwbg8C987eHivcL">
    <mxGraphModel dx="823" dy="543" grid="1" gridSize="10" guides="1" tooltips="1" connect="1" arrows="1" fold="1" page="1" pageScale="1" pageWidth="850" pageHeight="1100" math="0" shadow="0">
      <root>
        <mxCell id="0" />
        <mxCell id="1" parent="0" />
        <mxCell id="Y9t4oav_r9_LVxDpHB5L-4" value="" style="edgeStyle=orthogonalEdgeStyle;rounded=0;orthogonalLoop=1;jettySize=auto;html=1;" edge="1" parent="1" source="Y9t4oav_r9_LVxDpHB5L-2" target="Y9t4oav_r9_LVxDpHB5L-3">
          <mxGeometry relative="1" as="geometry" />
        </mxCell>
        <mxCell id="Y9t4oav_r9_LVxDpHB5L-2" value="设置授权按钮" style="html=1;dashed=0;whiteSpace=wrap;" vertex="1" parent="1">
          <mxGeometry x="240" y="340" width="100" height="50" as="geometry" />
        </mxCell>
        <mxCell id="Y9t4oav_r9_LVxDpHB5L-6" value="" style="edgeStyle=orthogonalEdgeStyle;rounded=0;orthogonalLoop=1;jettySize=auto;html=1;" edge="1" parent="1" source="Y9t4oav_r9_LVxDpHB5L-3" target="Y9t4oav_r9_LVxDpHB5L-5">
          <mxGeometry relative="1" as="geometry" />
        </mxCell>
        <mxCell id="Y9t4oav_r9_LVxDpHB5L-3" value="卖家从网站发起授权" style="html=1;dashed=0;whiteSpace=wrap;" vertex="1" parent="1">
          <mxGeometry x="240" y="470" width="100" height="50" as="geometry" />
        </mxCell>
        <mxCell id="Y9t4oav_r9_LVxDpHB5L-8" value="" style="edgeStyle=orthogonalEdgeStyle;rounded=0;orthogonalLoop=1;jettySize=auto;html=1;" edge="1" parent="1" source="Y9t4oav_r9_LVxDpHB5L-5" target="Y9t4oav_r9_LVxDpHB5L-7">
          <mxGeometry relative="1" as="geometry" />
        </mxCell>
        <mxCell id="Y9t4oav_r9_LVxDpHB5L-5" value="卖家在亚马逊后台同意授权" style="html=1;dashed=0;whiteSpace=wrap;" vertex="1" parent="1">
          <mxGeometry x="240" y="600" width="100" height="50" as="geometry" />
        </mxCell>
        <mxCell id="Y9t4oav_r9_LVxDpHB5L-7" value="应用程序使用LWA授权代码生成LWA刷新令牌" style="html=1;dashed=0;whiteSpace=wrap;" vertex="1" parent="1">
          <mxGeometry x="240" y="730" width="100" height="50" as="geometry" />
        </mxCell>
      </root>
    </mxGraphModel>
  </diagram>
</mxfile>
